#N canvas 663 52 720 851 10;
#X obj 255 596 samphold~;
#X obj 242 711 dac~;
#X obj 370 365 phasor~;
#X obj 282 177 adc~;
#X obj 380 173 osc~;
#X floatatom 367 57 5 0 0 0 - - -;
#X floatatom 480 116 5 0 0 0 - - -;
#X obj 382 216 *~;
#X obj 397 295 +~;
#X floatatom 421 244 5 0 0 0 - - -;
#X connect 0 0 1 0;
#X connect 2 0 0 1;
#X connect 3 0 0 0;
#X connect 3 0 1 1;
#X connect 4 0 7 0;
#X connect 5 0 4 0;
#X connect 6 0 7 1;
#X connect 7 0 8 0;
#X connect 8 0 2 0;
#X connect 9 0 8 1;
