#N canvas 0 23 1440 851 10;
#X obj 38 99 hradio 40 1 0 16 empty empty empty 0 -8 0 10 -66577 -262144
-1 0;
#X obj 38 64 f;
#X obj 122 64 + 1;
#X obj 38 9 inlet;
#X msg 122 41 -1;
#X obj 122 26 bng 15 250 50 0 empty empty empty 17 7 0 10 -262144 -1
-1;
#X obj 38 47 metro 200;
#X obj 38 81 mod 16;
#X obj 927 421 s t0;
#X obj 973 421 s t1;
#X obj 888 404 route 0;
#X obj 934 404 route 0;
#X obj 38 140 s \$0-beat;
#X obj 18 227 r \$0-beat;
#X obj 178 244 track;
#X obj 228 18 inlet;
#X obj 228 58 bng 40 250 50 0 \$0-save \$0-save SAVE 4 20 0 14 -191407
-1 -1;
#X obj 269 58 bng 40 250 50 0 \$0-load \$0-load LOAD 4 20 0 14 -191407
-1 -1;
#X obj 310 58 s \$0-patch_index;
#X obj 228 35 route save load float;
#X msg 80 227 save;
#X msg 115 227 load;
#X obj 346 244 track;
#X obj 80 190 r \$0-save;
#X obj 115 210 r \$0-load;
#X obj 888 271 sprintf sequence%d_track0.txt;
#X obj 888 254 r \$0-patch_index;
#X obj 888 288 tosymbol;
#X obj 1080 254 r \$0-patch_index;
#X obj 1080 288 tosymbol;
#X obj 1080 271 sprintf sequence%d_track1.txt;
#X obj 888 328 r \$0-patch_index;
#X obj 888 362 tosymbol;
#X obj 1080 328 r \$0-patch_index;
#X obj 1080 362 tosymbol;
#X obj 888 305 s \$0-filename0;
#X obj 1080 379 s \$0-filename3;
#X obj 888 379 s \$0-filename2;
#X obj 1080 305 s \$0-filename1;
#X obj 888 345 sprintf sequence%d_track2.txt;
#X obj 1080 345 sprintf sequence%d_track3.txt;
#X obj 250 227 r \$0-filename0;
#X obj 418 227 r \$0-filename1;
#X obj 56 30 r period;
#X obj 980 404 route 0;
#X obj 1026 404 route 0;
#X obj 514 244 track;
#X obj 682 244 track;
#X obj 1019 421 s t2;
#X obj 1065 421 s t3;
#X obj 586 227 r \$0-filename2;
#X obj 754 227 r \$0-filename3;
#X obj 888 594 route 0;
#X obj 934 594 route 0;
#X obj 18 417 r \$0-beat;
#X obj 178 434 track;
#X msg 80 417 save;
#X msg 115 417 load;
#X obj 346 434 track;
#X obj 80 380 r \$0-save;
#X obj 115 400 r \$0-load;
#X obj 980 594 route 0;
#X obj 1026 594 route 0;
#X obj 514 434 track;
#X obj 682 434 track;
#X obj 888 784 route 0;
#X obj 934 784 route 0;
#X obj 18 607 r \$0-beat;
#X obj 178 624 track;
#X msg 80 607 save;
#X msg 115 607 load;
#X obj 346 624 track;
#X obj 80 570 r \$0-save;
#X obj 115 590 r \$0-load;
#X obj 980 784 route 0;
#X obj 1026 784 route 0;
#X obj 514 624 track;
#X obj 682 624 track;
#X obj 888 974 route 0;
#X obj 934 974 route 0;
#X obj 18 797 r \$0-beat;
#X obj 178 814 track;
#X msg 80 797 save;
#X msg 115 797 load;
#X obj 346 814 track;
#X obj 80 760 r \$0-save;
#X obj 115 780 r \$0-load;
#X obj 980 974 route 0;
#X obj 1026 974 route 0;
#X obj 514 814 track;
#X obj 682 814 track;
#X obj 888 444 r \$0-patch_index;
#X obj 888 478 tosymbol;
#X obj 1080 444 r \$0-patch_index;
#X obj 1080 478 tosymbol;
#X obj 888 518 r \$0-patch_index;
#X obj 888 552 tosymbol;
#X obj 1080 518 r \$0-patch_index;
#X obj 1080 552 tosymbol;
#X obj 888 635 r \$0-patch_index;
#X obj 888 669 tosymbol;
#X obj 1080 635 r \$0-patch_index;
#X obj 1080 669 tosymbol;
#X obj 888 709 r \$0-patch_index;
#X obj 888 743 tosymbol;
#X obj 1080 709 r \$0-patch_index;
#X obj 1080 743 tosymbol;
#X obj 888 826 r \$0-patch_index;
#X obj 888 860 tosymbol;
#X obj 1080 826 r \$0-patch_index;
#X obj 1080 860 tosymbol;
#X obj 888 900 r \$0-patch_index;
#X obj 888 934 tosymbol;
#X obj 1080 900 r \$0-patch_index;
#X obj 1080 934 tosymbol;
#X obj 888 461 sprintf sequence%d_track4.txt;
#X obj 1080 461 sprintf sequence%d_track5.txt;
#X obj 888 535 sprintf sequence%d_track6.txt;
#X obj 1080 535 sprintf sequence%d_track7.txt;
#X obj 888 652 sprintf sequence%d_track8.txt;
#X obj 1080 652 sprintf sequence%d_track9.txt;
#X obj 888 726 sprintf sequence%d_track10.txt;
#X obj 1080 726 sprintf sequence%d_track11.txt;
#X obj 888 843 sprintf sequence%d_track12.txt;
#X obj 1080 843 sprintf sequence%d_track13.txt;
#X obj 888 917 sprintf sequence%d_track14.txt;
#X obj 1080 917 sprintf sequence%d_track15.txt;
#X obj 888 495 s \$0-filename4;
#X obj 1080 495 s \$0-filename5;
#X obj 888 569 s \$0-filename6;
#X obj 1080 569 s \$0-filename7;
#X obj 888 686 s \$0-filename8;
#X obj 1080 686 s \$0-filename9;
#X obj 888 760 s \$0-filename10;
#X obj 1080 760 s \$0-filename11;
#X obj 888 877 s \$0-filename12;
#X obj 1080 877 s \$0-filename13;
#X obj 888 951 s \$0-filename14;
#X obj 1080 951 s \$0-filename15;
#X obj 927 611 s t4;
#X obj 973 611 s t5;
#X obj 1019 611 s t6;
#X obj 1065 611 s t7;
#X obj 927 801 s t8;
#X obj 973 801 s t9;
#X obj 1019 801 s t10;
#X obj 1065 801 s t11;
#X obj 927 991 s t12;
#X obj 973 991 s t13;
#X obj 1019 991 s t14;
#X obj 1065 991 s t15;
#X obj 250 417 r \$0-filename4;
#X obj 418 417 r \$0-filename5;
#X obj 586 417 r \$0-filename6;
#X obj 754 417 r \$0-filename7;
#X obj 250 607 r \$0-filename8;
#X obj 418 607 r \$0-filename9;
#X obj 586 607 r \$0-filename10;
#X obj 754 607 r \$0-filename11;
#X obj 250 797 r \$0-filename12;
#X obj 418 798 r \$0-filename13;
#X obj 586 797 r \$0-filename14;
#X obj 754 797 r \$0-filename15;
#X connect 0 0 12 0;
#X connect 1 0 2 0;
#X connect 1 0 7 0;
#X connect 2 0 1 1;
#X connect 3 0 5 0;
#X connect 3 0 6 0;
#X connect 4 0 2 0;
#X connect 5 0 4 0;
#X connect 6 0 1 0;
#X connect 7 0 0 0;
#X connect 10 1 8 0;
#X connect 11 1 9 0;
#X connect 13 0 14 0;
#X connect 13 0 22 0;
#X connect 13 0 46 0;
#X connect 13 0 47 0;
#X connect 14 0 10 0;
#X connect 15 0 19 0;
#X connect 19 0 16 0;
#X connect 19 1 17 0;
#X connect 19 2 18 0;
#X connect 20 0 14 1;
#X connect 20 0 22 1;
#X connect 20 0 46 1;
#X connect 20 0 47 1;
#X connect 21 0 14 1;
#X connect 21 0 22 1;
#X connect 21 0 46 1;
#X connect 21 0 47 1;
#X connect 22 0 11 0;
#X connect 23 0 20 0;
#X connect 24 0 21 0;
#X connect 25 0 27 0;
#X connect 26 0 25 0;
#X connect 27 0 35 0;
#X connect 28 0 30 0;
#X connect 29 0 38 0;
#X connect 30 0 29 0;
#X connect 31 0 39 0;
#X connect 32 0 37 0;
#X connect 33 0 40 0;
#X connect 34 0 36 0;
#X connect 39 0 32 0;
#X connect 40 0 34 0;
#X connect 41 0 14 2;
#X connect 42 0 22 2;
#X connect 43 0 6 1;
#X connect 44 1 48 0;
#X connect 45 1 49 0;
#X connect 46 0 44 0;
#X connect 47 0 45 0;
#X connect 50 0 46 2;
#X connect 51 0 47 2;
#X connect 52 1 139 0;
#X connect 53 1 140 0;
#X connect 54 0 55 0;
#X connect 54 0 58 0;
#X connect 54 0 63 0;
#X connect 54 0 64 0;
#X connect 55 0 52 0;
#X connect 56 0 55 1;
#X connect 56 0 58 1;
#X connect 56 0 63 1;
#X connect 56 0 64 1;
#X connect 57 0 55 1;
#X connect 57 0 58 1;
#X connect 57 0 63 1;
#X connect 57 0 64 1;
#X connect 58 0 53 0;
#X connect 59 0 56 0;
#X connect 60 0 57 0;
#X connect 61 1 141 0;
#X connect 62 1 142 0;
#X connect 63 0 61 0;
#X connect 64 0 62 0;
#X connect 65 1 143 0;
#X connect 66 1 144 0;
#X connect 67 0 68 0;
#X connect 67 0 71 0;
#X connect 67 0 76 0;
#X connect 67 0 77 0;
#X connect 68 0 65 0;
#X connect 69 0 68 1;
#X connect 69 0 71 1;
#X connect 69 0 76 1;
#X connect 69 0 77 1;
#X connect 70 0 68 1;
#X connect 70 0 71 1;
#X connect 70 0 76 1;
#X connect 70 0 77 1;
#X connect 71 0 66 0;
#X connect 72 0 69 0;
#X connect 73 0 70 0;
#X connect 74 1 145 0;
#X connect 75 1 146 0;
#X connect 76 0 74 0;
#X connect 77 0 75 0;
#X connect 78 1 147 0;
#X connect 79 1 148 0;
#X connect 80 0 81 0;
#X connect 80 0 84 0;
#X connect 80 0 89 0;
#X connect 80 0 90 0;
#X connect 81 0 78 0;
#X connect 82 0 81 1;
#X connect 82 0 84 1;
#X connect 82 0 90 1;
#X connect 82 0 89 1;
#X connect 83 0 81 1;
#X connect 83 0 84 1;
#X connect 83 0 90 1;
#X connect 83 0 89 1;
#X connect 84 0 79 0;
#X connect 85 0 82 0;
#X connect 86 0 83 0;
#X connect 87 1 149 0;
#X connect 88 1 150 0;
#X connect 89 0 87 0;
#X connect 90 0 88 0;
#X connect 91 0 115 0;
#X connect 92 0 127 0;
#X connect 93 0 116 0;
#X connect 94 0 128 0;
#X connect 95 0 117 0;
#X connect 96 0 129 0;
#X connect 97 0 118 0;
#X connect 98 0 130 0;
#X connect 99 0 119 0;
#X connect 100 0 131 0;
#X connect 101 0 120 0;
#X connect 102 0 132 0;
#X connect 103 0 121 0;
#X connect 104 0 133 0;
#X connect 105 0 122 0;
#X connect 106 0 134 0;
#X connect 107 0 123 0;
#X connect 108 0 135 0;
#X connect 109 0 124 0;
#X connect 110 0 136 0;
#X connect 111 0 125 0;
#X connect 112 0 137 0;
#X connect 113 0 126 0;
#X connect 114 0 138 0;
#X connect 115 0 92 0;
#X connect 116 0 94 0;
#X connect 117 0 96 0;
#X connect 118 0 98 0;
#X connect 119 0 100 0;
#X connect 120 0 102 0;
#X connect 121 0 104 0;
#X connect 122 0 106 0;
#X connect 123 0 108 0;
#X connect 124 0 110 0;
#X connect 125 0 112 0;
#X connect 126 0 114 0;
#X connect 151 0 55 2;
#X connect 152 0 58 2;
#X connect 153 0 63 2;
#X connect 154 0 64 2;
#X connect 155 0 68 2;
#X connect 156 0 71 2;
#X connect 157 0 76 2;
#X connect 158 0 77 2;
#X connect 159 0 81 2;
#X connect 160 0 84 2;
#X connect 161 0 89 2;
#X connect 162 0 90 2;
